<svg width="81" height="24" viewBox="0 0 81 24" fill="none" xmlns="http://www.w3.org/2000/svg" style="color: var(--color-onSurface);">
<path d="M70.534 24C63.5171 24 60.2035 20.5479 60.2035 12.8877V3.28767C60.2035 1.15069 59.7637 0 61.8753 0H64.849C66.9606 0 68.0976 1.15069 68.0976 3.28767V12.8548C68.0976 15.8137 68.7148 17.063 70.534 17.063C72.3857 17.063 73.0029 15.8137 73.0029 12.8877V3.28767C73.0029 1.15069 74.1399 0 76.2515 0H79.2901C81.4017 0 80.962 1.15069 80.962 3.28767V12.9534C80.962 20.4822 77.5509 24 70.534 24Z" fill="#FC5050"/>
<path d="M0.0157548 1.81419C0.0157548 1.37078 0.231071 1.14907 0.661702 1.14907H13.6279C14.0585 1.14907 14.2739 1.37078 14.2739 1.81419C14.2739 2.21537 14.2739 2.63767 14.2739 3.08108C14.2844 3.51394 14.2739 3.93095 14.2424 4.33214C14.2108 4.75443 13.9955 4.96558 13.5964 4.96558H4.22229C4.09625 4.96558 4.03323 5.02893 4.03323 5.15562C4.03323 6.03188 4.03323 6.91343 4.03323 7.80025C4.04374 8.67652 4.04899 9.55279 4.04899 10.4291C4.04899 10.5557 4.11201 10.6191 4.23805 10.6191H12.2257C12.6564 10.6191 12.8717 10.8355 12.8717 11.2684V13.7546C12.8717 14.1875 12.6564 14.4039 12.2257 14.4039H4.23805C4.11201 14.4039 4.04899 14.4673 4.04899 14.594C4.04899 15.5125 4.04899 16.431 4.04899 17.3495C4.04899 18.2574 4.04374 19.1706 4.03323 20.0891C4.02273 20.522 4.01748 20.9601 4.01748 21.4035C4.02798 21.8364 4.02273 22.2692 4.00172 22.7021C3.97021 23.1349 3.7549 23.3514 3.35578 23.3514H0.645947C0.215316 23.3514 0 23.1296 0 22.6862C0 22.1056 0.00525161 21.5302 0.0157548 20.9601C0.0367612 20.3794 0.0525161 19.7988 0.0630193 19.2181C0.0945289 16.7899 0.110284 14.367 0.110284 11.9493C0.110284 10.2496 0.0945289 8.56039 0.0630193 6.88176C0.0315096 5.19257 0.0157548 3.50338 0.0157548 1.81419Z" fill="currentColor"/>
<path d="M16.6843 3.58784C16.6843 3.00718 16.8997 2.51098 17.3303 2.09924C17.7609 1.67694 18.2651 1.46579 18.8428 1.46579C19.4309 1.46579 19.9456 1.68222 20.3867 2.11508C20.8384 2.53737 21.0642 3.04941 21.0642 3.65118C21.0642 4.23184 20.8489 4.7386 20.4182 5.17145C19.9981 5.59375 19.494 5.8049 18.9058 5.8049C18.3071 5.8049 17.7872 5.58847 17.346 5.15562C16.9049 4.7122 16.6843 4.18961 16.6843 3.58784ZM16.9207 13.137V9.63725C16.9207 9.20439 17.136 8.98796 17.5666 8.98796H19.9929C20.4235 8.98796 20.6388 9.20439 20.6388 9.63725C20.6388 11.8121 20.6441 13.9922 20.6546 16.1776C20.6651 18.3524 20.6703 20.5272 20.6703 22.7021C20.6703 23.1349 20.455 23.3514 20.0244 23.3514H17.5351C17.1045 23.3514 16.8892 23.1349 16.8892 22.7021C16.8892 21.1079 16.8944 19.5137 16.9049 17.9196C16.9154 16.3254 16.9207 14.7312 16.9207 13.137Z" fill="currentColor"/>
<path d="M26.7359 8.98796C27.1245 8.98796 27.3399 9.178 27.3819 9.55807C27.4134 9.76921 27.4396 9.98036 27.4606 10.1915C27.4816 10.4027 27.5027 10.6138 27.5237 10.825C27.5237 10.8461 27.5342 10.9094 27.5552 11.015C27.5762 11.11 27.6129 11.1575 27.6655 11.1575C27.718 11.1575 27.8072 11.0625 27.8072 11.0625C27.8072 11.0625 27.8965 10.9516 27.9175 10.92C28.5477 10.1071 29.3145 9.52111 30.2177 9.16216C31.121 8.80321 32.0715 8.62373 33.0694 8.62373C33.8886 8.62373 34.6396 8.79793 35.3223 9.14633C36.0155 9.48416 36.5722 9.96981 36.9923 10.6033C37.4124 11.2261 37.6225 11.9704 37.6225 12.8361C37.6225 14.4726 37.6382 16.1142 37.6698 17.7612C37.7118 19.4081 37.7328 21.0498 37.7328 22.6862C37.7328 23.1296 37.5175 23.3514 37.0868 23.3514H34.6133C34.2142 23.3514 33.9989 23.1349 33.9674 22.7021C33.9359 22.2481 33.9254 21.7941 33.9359 21.3402C33.9464 20.8756 33.9464 20.4164 33.9359 19.9624C33.9254 18.9911 33.9201 18.0251 33.9201 17.0644C33.9201 16.1037 33.9201 15.1429 33.9201 14.1822C33.9201 13.4326 33.7048 12.8731 33.2742 12.5036C32.8435 12.1235 32.2711 11.9335 31.5569 11.9335C30.6641 11.9335 29.9289 12.208 29.3512 12.757C28.784 13.306 28.3587 13.9816 28.0751 14.784C27.802 15.5864 27.6655 16.3729 27.6655 17.1436C27.6655 18.0726 27.6602 19.0017 27.6497 19.9307C27.6392 20.8492 27.6287 21.773 27.6182 22.7021C27.6182 23.1349 27.4029 23.3514 26.9722 23.3514H24.4987C24.0681 23.3514 23.8528 23.1296 23.8528 22.6862C23.8528 22.095 23.858 21.5091 23.8685 20.9284C23.8895 20.3372 23.9053 19.7513 23.9158 19.1706C23.9473 16.7002 23.9631 14.2297 23.9631 11.7593V9.63725C23.9631 9.20439 24.1784 8.98796 24.609 8.98796H26.7359Z" fill="currentColor"/>
<path d="M46.7445 23.6522C45.3161 23.6522 44.1135 23.3144 43.1367 22.6387C42.1599 21.963 41.4194 21.0604 40.9153 19.9307C40.4111 18.8011 40.159 17.5659 40.159 16.2251C40.159 14.7682 40.4269 13.4696 40.9625 12.3294C41.5087 11.1786 42.3017 10.2707 43.3415 9.60557C44.3813 8.94046 45.6575 8.6079 47.1699 8.6079C48.8399 8.6079 50.2946 9.09354 51.534 10.0648C51.6285 10.1387 51.702 10.1757 51.7546 10.1757C51.8176 10.1757 51.8543 10.1387 51.8648 10.0648C51.8753 9.99092 51.8806 9.93813 51.8806 9.90646C51.8806 8.91406 51.8806 7.92694 51.8806 6.9451C51.8911 5.96326 51.9016 4.97614 51.9121 3.98374C51.9226 3.51921 51.9226 3.04941 51.9121 2.57432C51.9016 2.08868 51.9121 1.61888 51.9436 1.16491C51.9751 0.732052 52.1904 0.515625 52.5896 0.515625H55.0473C55.4779 0.515625 55.6933 0.737331 55.6933 1.18074C55.6933 1.7614 55.6828 2.34206 55.6618 2.92272C55.6513 3.49282 55.6407 4.0682 55.6302 4.64886C55.5987 7.06651 55.583 9.49472 55.583 11.9335C55.583 14.3617 55.5987 16.7899 55.6302 19.2181C55.6407 19.7988 55.6513 20.3794 55.6618 20.9601C55.6828 21.5302 55.6933 22.1056 55.6933 22.6862C55.6933 23.1296 55.4779 23.3514 55.0473 23.3514H52.5581C52.1694 23.3514 51.9646 23.2035 51.9436 22.9079C51.9331 22.6123 51.9226 22.3273 51.9121 22.0528C51.9121 22.0211 51.9069 21.9736 51.8964 21.9103C51.8859 21.8364 51.8543 21.7994 51.8018 21.7994C51.7493 21.7994 51.6758 21.8364 51.5813 21.9103C50.8775 22.4698 50.1213 22.9027 49.3126 23.2088C48.5038 23.5044 47.6478 23.6522 46.7445 23.6522ZM47.8946 20.1524C48.8189 20.1524 49.6329 19.9413 50.3366 19.519C51.0403 19.0967 51.555 18.4369 51.8806 17.5395C51.8701 17.17 51.8648 16.8057 51.8648 16.4468C51.8648 16.0878 51.8648 15.7289 51.8648 15.3699C51.8648 15.201 51.8701 15.0163 51.8806 14.8157C51.8911 14.6151 51.8859 14.4356 51.8648 14.2772C51.8543 14.1611 51.7966 14.008 51.6915 13.818C51.5865 13.628 51.5077 13.4854 51.4552 13.3904C51.0666 12.7992 50.5467 12.3611 49.8955 12.076C49.2548 11.7804 48.5878 11.6326 47.8946 11.6326C47.0964 11.6326 46.3979 11.8332 45.7992 12.2344C45.2111 12.6356 44.7542 13.1634 44.4286 13.818C44.1135 14.4726 43.9559 15.1852 43.9559 15.9559C43.9559 16.6843 44.124 17.3706 44.4601 18.0146C44.8067 18.648 45.2793 19.1653 45.878 19.5665C46.4767 19.9571 47.1489 20.1524 47.8946 20.1524Z" fill="currentColor"/>
</svg>
